<mxfile host="app.diagrams.net" modified="2024-07-08T11:48:44.063Z" agent="Mozilla/5.0 (X11; Linux x86_64) AppleWebKit/537.36 (KHTML, like Gecko) Chrome/126.0.0.0 Safari/537.36" etag="Qcf7w8-r6Rjyp2n6ybBp" version="24.6.4" type="github">
  <diagram name="Page-1" id="5f0bae14-7c28-e335-631c-24af17079c00">
    <mxGraphModel dx="474" dy="796" grid="1" gridSize="10" guides="1" tooltips="1" connect="1" arrows="1" fold="1" page="1" pageScale="1" pageWidth="1100" pageHeight="850" background="none" math="0" shadow="0">
      <root>
        <mxCell id="0" />
        <mxCell id="1" parent="0" />
        <mxCell id="WpXGRs_5kX-XqBbyWWTM-11" style="edgeStyle=orthogonalEdgeStyle;rounded=0;orthogonalLoop=1;jettySize=auto;html=1;exitX=1;exitY=0.5;exitDx=0;exitDy=0;" edge="1" parent="1" source="WpXGRs_5kX-XqBbyWWTM-9" target="WpXGRs_5kX-XqBbyWWTM-10">
          <mxGeometry relative="1" as="geometry" />
        </mxCell>
        <mxCell id="WpXGRs_5kX-XqBbyWWTM-9" value="api/v1/auth" style="rounded=1;whiteSpace=wrap;html=1;" vertex="1" parent="1">
          <mxGeometry x="30" y="395" width="120" height="60" as="geometry" />
        </mxCell>
        <mxCell id="WpXGRs_5kX-XqBbyWWTM-27" value="" style="edgeStyle=orthogonalEdgeStyle;rounded=0;orthogonalLoop=1;jettySize=auto;html=1;" edge="1" parent="1" source="WpXGRs_5kX-XqBbyWWTM-10" target="WpXGRs_5kX-XqBbyWWTM-26">
          <mxGeometry relative="1" as="geometry" />
        </mxCell>
        <mxCell id="WpXGRs_5kX-XqBbyWWTM-33" style="edgeStyle=orthogonalEdgeStyle;rounded=0;orthogonalLoop=1;jettySize=auto;html=1;exitX=0.5;exitY=1;exitDx=0;exitDy=0;entryX=0;entryY=0.5;entryDx=0;entryDy=0;" edge="1" parent="1" source="WpXGRs_5kX-XqBbyWWTM-10" target="WpXGRs_5kX-XqBbyWWTM-28">
          <mxGeometry relative="1" as="geometry" />
        </mxCell>
        <mxCell id="WpXGRs_5kX-XqBbyWWTM-10" value="VerifyJwt" style="rounded=1;whiteSpace=wrap;html=1;" vertex="1" parent="1">
          <mxGeometry x="260" y="395" width="120" height="60" as="geometry" />
        </mxCell>
        <mxCell id="WpXGRs_5kX-XqBbyWWTM-16" style="edgeStyle=orthogonalEdgeStyle;rounded=0;orthogonalLoop=1;jettySize=auto;html=1;exitX=0.5;exitY=0;exitDx=0;exitDy=0;entryX=0;entryY=0.5;entryDx=0;entryDy=0;" edge="1" parent="1" source="WpXGRs_5kX-XqBbyWWTM-12" target="WpXGRs_5kX-XqBbyWWTM-13">
          <mxGeometry relative="1" as="geometry">
            <mxPoint x="320" y="60" as="targetPoint" />
          </mxGeometry>
        </mxCell>
        <mxCell id="WpXGRs_5kX-XqBbyWWTM-12" value="Middleware" style="text;html=1;align=center;verticalAlign=middle;whiteSpace=wrap;rounded=0;" vertex="1" parent="1">
          <mxGeometry x="290" y="395" width="60" height="30" as="geometry" />
        </mxCell>
        <mxCell id="WpXGRs_5kX-XqBbyWWTM-13" value="&lt;div&gt;func postSender()&lt;/div&gt;/sendPosts" style="rounded=1;whiteSpace=wrap;html=1;" vertex="1" parent="1">
          <mxGeometry x="430" y="30" width="120" height="60" as="geometry" />
        </mxCell>
        <mxCell id="WpXGRs_5kX-XqBbyWWTM-17" value="&lt;div&gt;func getAllUsers()&lt;/div&gt;/allusers" style="rounded=1;whiteSpace=wrap;html=1;" vertex="1" parent="1">
          <mxGeometry x="430" y="120" width="120" height="60" as="geometry" />
        </mxCell>
        <mxCell id="WpXGRs_5kX-XqBbyWWTM-19" value="" style="endArrow=none;html=1;rounded=0;entryX=0;entryY=0.5;entryDx=0;entryDy=0;" edge="1" parent="1" target="WpXGRs_5kX-XqBbyWWTM-17">
          <mxGeometry width="50" height="50" relative="1" as="geometry">
            <mxPoint x="320" y="150" as="sourcePoint" />
            <mxPoint x="570" y="310" as="targetPoint" />
          </mxGeometry>
        </mxCell>
        <mxCell id="WpXGRs_5kX-XqBbyWWTM-20" value="&lt;div&gt;func getAllPosts()&lt;/div&gt;/getAllPosts" style="rounded=1;whiteSpace=wrap;html=1;" vertex="1" parent="1">
          <mxGeometry x="430" y="210" width="120" height="60" as="geometry" />
        </mxCell>
        <mxCell id="WpXGRs_5kX-XqBbyWWTM-22" value="" style="endArrow=classic;html=1;rounded=0;entryX=0;entryY=0.5;entryDx=0;entryDy=0;" edge="1" parent="1" target="WpXGRs_5kX-XqBbyWWTM-20">
          <mxGeometry width="50" height="50" relative="1" as="geometry">
            <mxPoint x="320" y="240" as="sourcePoint" />
            <mxPoint x="570" y="310" as="targetPoint" />
          </mxGeometry>
        </mxCell>
        <mxCell id="WpXGRs_5kX-XqBbyWWTM-23" value="&lt;div&gt;func savePosts()&lt;/div&gt;/savePosts" style="rounded=1;whiteSpace=wrap;html=1;" vertex="1" parent="1">
          <mxGeometry x="430" y="310" width="120" height="60" as="geometry" />
        </mxCell>
        <mxCell id="WpXGRs_5kX-XqBbyWWTM-25" value="" style="endArrow=classic;html=1;rounded=0;" edge="1" parent="1" target="WpXGRs_5kX-XqBbyWWTM-23">
          <mxGeometry width="50" height="50" relative="1" as="geometry">
            <mxPoint x="320" y="340" as="sourcePoint" />
            <mxPoint x="570" y="310" as="targetPoint" />
          </mxGeometry>
        </mxCell>
        <mxCell id="WpXGRs_5kX-XqBbyWWTM-26" value="func getPostByThier&lt;div&gt;Username()&lt;/div&gt;&lt;div&gt;/getSaved&lt;/div&gt;" style="rounded=1;whiteSpace=wrap;html=1;" vertex="1" parent="1">
          <mxGeometry x="430" y="395" width="120" height="60" as="geometry" />
        </mxCell>
        <mxCell id="WpXGRs_5kX-XqBbyWWTM-28" value="&lt;div&gt;func getFollower()&lt;/div&gt;/getFollower" style="rounded=1;whiteSpace=wrap;html=1;" vertex="1" parent="1">
          <mxGeometry x="430" y="490" width="120" height="60" as="geometry" />
        </mxCell>
        <mxCell id="WpXGRs_5kX-XqBbyWWTM-34" value="func getFollowing()&lt;div&gt;/getFollowing&lt;/div&gt;" style="rounded=1;whiteSpace=wrap;html=1;" vertex="1" parent="1">
          <mxGeometry x="430" y="570" width="120" height="60" as="geometry" />
        </mxCell>
        <mxCell id="WpXGRs_5kX-XqBbyWWTM-36" value="" style="endArrow=none;html=1;rounded=0;" edge="1" parent="1">
          <mxGeometry width="50" height="50" relative="1" as="geometry">
            <mxPoint x="320" y="520" as="sourcePoint" />
            <mxPoint x="320" y="600" as="targetPoint" />
          </mxGeometry>
        </mxCell>
        <mxCell id="WpXGRs_5kX-XqBbyWWTM-38" value="" style="endArrow=classic;html=1;rounded=0;entryX=0;entryY=0.5;entryDx=0;entryDy=0;" edge="1" parent="1" target="WpXGRs_5kX-XqBbyWWTM-34">
          <mxGeometry width="50" height="50" relative="1" as="geometry">
            <mxPoint x="320" y="600" as="sourcePoint" />
            <mxPoint x="520" y="380" as="targetPoint" />
          </mxGeometry>
        </mxCell>
        <mxCell id="WpXGRs_5kX-XqBbyWWTM-40" value="" style="endArrow=none;html=1;rounded=0;" edge="1" parent="1">
          <mxGeometry width="50" height="50" relative="1" as="geometry">
            <mxPoint x="320" y="600" as="sourcePoint" />
            <mxPoint x="320" y="670" as="targetPoint" />
          </mxGeometry>
        </mxCell>
        <mxCell id="WpXGRs_5kX-XqBbyWWTM-41" value="func signin()&lt;div&gt;/signin&lt;/div&gt;" style="rounded=1;whiteSpace=wrap;html=1;" vertex="1" parent="1">
          <mxGeometry x="430" y="650" width="120" height="60" as="geometry" />
        </mxCell>
        <mxCell id="WpXGRs_5kX-XqBbyWWTM-42" value="func signup()&lt;div&gt;.signup()&lt;/div&gt;" style="rounded=1;whiteSpace=wrap;html=1;" vertex="1" parent="1">
          <mxGeometry x="430" y="730" width="120" height="60" as="geometry" />
        </mxCell>
        <mxCell id="WpXGRs_5kX-XqBbyWWTM-43" value="" style="endArrow=none;html=1;rounded=0;" edge="1" parent="1">
          <mxGeometry width="50" height="50" relative="1" as="geometry">
            <mxPoint x="320" y="670" as="sourcePoint" />
            <mxPoint x="320" y="750" as="targetPoint" />
          </mxGeometry>
        </mxCell>
        <mxCell id="WpXGRs_5kX-XqBbyWWTM-44" value="" style="endArrow=none;html=1;rounded=0;entryX=0;entryY=0.4;entryDx=0;entryDy=0;entryPerimeter=0;" edge="1" parent="1" target="WpXGRs_5kX-XqBbyWWTM-42">
          <mxGeometry width="50" height="50" relative="1" as="geometry">
            <mxPoint x="320" y="750" as="sourcePoint" />
            <mxPoint x="360" y="550" as="targetPoint" />
          </mxGeometry>
        </mxCell>
        <mxCell id="WpXGRs_5kX-XqBbyWWTM-45" value="" style="endArrow=none;html=1;rounded=0;entryX=0;entryY=0.5;entryDx=0;entryDy=0;" edge="1" parent="1" target="WpXGRs_5kX-XqBbyWWTM-41">
          <mxGeometry width="50" height="50" relative="1" as="geometry">
            <mxPoint x="320" y="680" as="sourcePoint" />
            <mxPoint x="360" y="550" as="targetPoint" />
          </mxGeometry>
        </mxCell>
      </root>
    </mxGraphModel>
  </diagram>
</mxfile>
